HIERARCHY
ROOT Hips
{
     OFFSET 1.88212 96.90440 -13.34250
     CHANNELS 6 Xposition Yposition Zposition Zrotation Xrotation Yrotation
     JOINT Spine
     {
          OFFSET 0.00000 11.89050 0.00000
          CHANNELS 3 Zrotation Xrotation Yrotation
          JOINT Spine1
          {
               OFFSET -0.00000 25.65740 0.12766
               CHANNELS 3 Zrotation Xrotation Yrotation
               JOINT HEad
               {
                    OFFSET 0.00000 8.73416 0.01134
                    CHANNELS 3 Zrotation Xrotation Yrotation
                    End Site
                    {
                         OFFSET -0.29000 12.77420 2.51395
                    }
               }
               JOINT LeftShoulder1
               {
                    OFFSET 8.99000 -0.36225 -0.22000
                    CHANNELS 3 Zrotation Xrotation Yrotation
                    JOINT LeftArm
                    {
                         OFFSET 10.28270 -0.00338 0.32212
                         CHANNELS 3 Zrotation Xrotation Yrotation
                         JOINT LeftForeArm
                         {
                              OFFSET 32.76690 0.09914 -1.42434
                              CHANNELS 3 Zrotation Xrotation Yrotation
                              JOINT LeftHand
                              {
                                   OFFSET 27.56430 0.08536 1.02216
                                   CHANNELS 3 Zrotation Xrotation Yrotation
                                   End Site
                                   {
                                        OFFSET 16.74430 -0.60000 1.50291
                                   }
                              }
                         }
                    }
               }
               JOINT RightShoulder
               {
                    OFFSET -8.99000 -0.36225 -0.22000
                    CHANNELS 3 Zrotation Xrotation Yrotation
                    JOINT RightArm
                    {
                         OFFSET -10.28270 -0.00338 0.32212
                         CHANNELS 3 Zrotation Xrotation Yrotation
                         JOINT RightForeArm
                         {
                              OFFSET -32.89710 0.09914 -1.42434
                              CHANNELS 3 Zrotation Xrotation Yrotation
                              JOINT RightHand
                              {
                                   OFFSET -27.49210 0.08536 1.02216
                                   CHANNELS 3 Zrotation Xrotation Yrotation
                                   End Site
                                   {
                                        OFFSET -16.63120 -0.60000 1.50291
                                   }
                              }
                         }
                    }
               }
          }
     }
     JOINT LeftUpLeg
     {
          OFFSET 8.94580 -8.66707 0.10165
          CHANNELS 3 Zrotation Xrotation Yrotation
          JOINT LeftLeg
          {
               OFFSET 0.00000 -44.42270 1.37270
               CHANNELS 3 Zrotation Xrotation Yrotation
               JOINT LeftFoot
               {
                    OFFSET -0.25355 -42.09240 -1.46059
                    CHANNELS 3 Zrotation Xrotation Yrotation
                    JOINT LeftToes
                    {
                         OFFSET -0.04000 -4.41509 8.49910
                         CHANNELS 3 Zrotation Xrotation Yrotation
                         End Site
                         {
                              OFFSET 0.08000 -0.04745 9.77979
                         }
                    }
               }
          }
     }
     JOINT RightUpLeg
     {
          OFFSET -8.94580 -8.66707 0.10165
          CHANNELS 3 Zrotation Xrotation Yrotation
          JOINT RightLeg
          {
               OFFSET 0.00000 -44.42270 1.37270
               CHANNELS 3 Zrotation Xrotation Yrotation
               JOINT RightFoot
               {
                    OFFSET 0.25355 -42.09240 -1.46059
                    CHANNELS 3 Zrotation Xrotation Yrotation
                    JOINT RightToes
                    {
                         OFFSET 0.04000 -4.41509 8.49910
                         CHANNELS 3 Zrotation Xrotation Yrotation
                         End Site
                         {
                              OFFSET -0.08000 -0.13745 9.77979
                         }
                    }
               }
          }
     }
}
MOTION
Frames: 6
Frame Time: 0.01667
67.63837 93.32520 335.03186 -6.19429 -5.21173 -67.11385 6.30298 18.48995 11.99185 0.01709 -0.01319 -0.01893 -33.16707 20.84689 27.31196 10.68458 -4.80786 -1.05169 12.63863 -78.59497 30.59957 -36.67702 46.64384 -106.09504 3.80335 9.00432 1.96654 32.70562 -2.45651 5.91386 33.39052 -12.24407 55.80740 20.92107 33.82917 108.89922 -6.32772 16.18635 -0.84861 20.83041 -20.11868 11.54204 -1.88030 25.41839 7.77915 13.74672 -0.07372 -0.04686 -36.31239 -7.25221 -9.27169 -25.43649 -7.08198 -16.03195 -34.27401 43.22597 62.58242 16.90569 -0.07810 0.00779 -9.52913 -49.12857 -31.96708 
68.32005 92.66509 332.12561 -5.17029 -5.17904 -66.18655 5.01365 18.08247 13.17127 0.01444 -0.00965 -0.01854 -34.38256 19.43337 26.73807 11.03570 -4.86748 -2.15126 14.34766 -78.52940 33.12474 -37.05545 46.52663 -105.98135 3.63370 9.53429 -0.40302 32.54317 -2.91121 5.07172 35.23878 -11.99759 57.16715 21.03778 34.13873 108.56456 -6.14702 15.67631 -1.08636 22.40082 -21.82771 11.44380 -4.34339 24.82829 9.24709 18.68392 -0.04659 -0.04795 -39.80394 -5.95248 -9.87795 -25.74278 -2.61677 -11.84887 -23.45886 38.88101 51.78853 16.34316 -0.09291 -0.01245 -5.92822 -43.01316 -33.08956 
68.95539 92.06578 329.36316 -4.24740 -5.00669 -65.36971 4.12948 17.63554 14.03457 0.01207 -0.00679 -0.01881 -35.43021 18.12901 26.35734 11.16111 -4.60116 -3.16786 17.05237 -78.78519 36.70510 -37.55235 46.60467 -105.68829 4.23476 8.91287 0.88168 32.07047 -3.01566 4.14646 37.28584 -11.71821 58.87912 21.11246 34.49590 107.99181 -6.07091 15.31389 -1.36281 23.60942 -23.32964 11.35273 -4.82380 24.31413 7.57138 21.80868 0.04026 -0.04011 -42.42333 -5.83354 -8.61632 -25.61387 1.84693 -6.88524 -14.19616 33.45794 40.07487 14.35443 -0.09010 0.03470 -18.24652 -51.75075 -28.06787 
69.50772 91.51361 326.73633 -3.47666 -4.74507 -64.66088 3.59540 17.21781 14.60079 0.01019 -0.00429 -0.01896 -36.31660 16.92423 26.20708 11.09861 -4.03272 -4.05354 20.54471 -79.30601 41.20875 -38.18652 46.94371 -105.36327 4.23211 8.86269 -0.70967 31.51637 -2.78535 3.14288 39.26366 -11.40012 60.80569 21.17900 34.87788 107.27254 -6.01768 14.85902 -1.66521 24.36370 -24.64698 11.17116 -3.87444 23.82429 3.46337 23.51700 0.05929 -0.03366 -43.79619 -5.92198 -5.62161 -25.02729 6.05098 -1.23700 -7.17588 27.13060 28.34301 13.78525 -0.09893 -0.00408 -10.58272 -42.77672 -27.37983 
69.95499 91.02522 324.23486 -2.92054 -4.48591 -64.04330 3.32799 16.89859 14.88066 0.00815 -0.00359 -0.01901 -37.04558 15.84354 26.31281 10.86003 -3.33465 -4.77368 24.34916 -79.92065 46.10088 -39.01960 47.49793 -104.92665 4.68012 8.30501 -0.09727 31.05846 -2.35732 2.22988 40.94532 -11.06057 62.57280 21.23575 35.25376 106.56689 -6.11132 14.50221 -1.87532 24.58230 -25.73072 10.80840 -1.87771 23.34681 -2.55803 24.13393 0.03858 -0.01368 -31.59921 3.55445 -7.85211 -24.71688 9.76343 4.01489 -1.09218 22.19881 17.10091 9.86786 -0.18148 0.08145 -10.27872 -44.42055 -22.02758 
70.28613 90.57583 321.91150 -2.57942 -4.24616 -63.48888 3.29676 16.67402 14.87560 0.00675 -0.00231 -0.01882 -37.65053 14.93915 26.70017 10.56764 -2.54803 -5.39269 28.54887 -80.59648 51.48571 -39.98906 48.21724 -104.39646 4.66781 8.32184 -1.23904 30.53305 -1.79864 1.38353 42.54330 -10.65445 64.15371 21.29079 35.58234 105.85916 -6.24325 14.11728 -2.06200 24.38848 -26.50182 10.27827 -0.23007 22.36752 -7.57109 24.87379 0.03325 -0.03068 -41.16886 -0.13542 -0.06937 -24.64935 12.91667 8.87452 4.52372 17.82788 7.09230 8.70720 -0.15015 0.01794 -8.68983 -41.98717 -18.17482 
